<?xml version="1.0" encoding="utf-8"?><svg xmlns="http://www.w3.org/2000/svg" xmlns:xlink="http://www.w3.org/1999/xlink"><symbol viewBox="0 0 37 36" id="customs" xmlns="http://www.w3.org/2000/svg"><path d="M22.57 14.656l-5.547 5.109-2.662-2.67a.781.781 0 00-1.085-.016.735.735 0 00-.016 1.058l3.193 3.196a.796.796 0 001.085.022l6.102-5.611a.738.738 0 00.03-1.058.8.8 0 00-1.1-.03z"/><path d="M18.454 6.793c-6.34 0-11.495 5.027-11.495 11.209 0 6.182 5.155 11.209 11.495 11.209 6.34 0 11.495-5.027 11.495-11.21 0-6.181-5.155-11.208-11.495-11.208zm0 20.917c-5.494 0-9.956-4.359-9.956-9.708 0-5.35 4.462-9.708 9.956-9.708 5.498 0 9.956 4.346 9.956 9.708 0 5.361-4.457 9.708-9.956 9.708z"/><path d="M34.273 13.876l.253-4.45a.745.745 0 00-.423-.712L30.041 6.71l-2.054-3.96a.784.784 0 00-.731-.413l-4.57.24-3.81-2.453a.785.785 0 00-.845 0l-3.809 2.453L9.66 2.33a.77.77 0 00-.731.412L6.874 6.704 2.812 8.707a.757.757 0 00-.423.712l.254 4.45-2.516 3.713a.734.734 0 000 .825l2.508 3.721-.254 4.449a.745.745 0 00.423.713l4.063 2.003 2.054 3.961c.14.266.425.427.731.413l4.563-.248 3.808 2.453c.255.17.591.17.846 0l3.809-2.453 4.563.248a.771.771 0 00.73-.413l2.055-3.961 4.062-2.003a.758.758 0 00.423-.713l-.254-4.449 2.516-3.713a.734.734 0 000-.826l-2.5-3.713zm-1.432 7.637a.69.69 0 00-.123.458l.239 4.208-3.84 1.89a.75.75 0 00-.338.331l-1.939 3.744-4.316-.233a.857.857 0 00-.47.12l-3.6 2.319-3.6-2.319a.775.775 0 00-.424-.127h-.038l-4.317.232-1.939-3.744a.748.748 0 00-.338-.33L3.95 26.18l.238-4.208a.804.804 0 00-.123-.458L1.69 18.002l2.377-3.511a.689.689 0 00.123-.458l-.238-4.209 3.84-1.89a.75.75 0 00.338-.33l1.938-3.744 4.317.233a.86.86 0 00.47-.12l3.6-2.319 3.6 2.318a.735.735 0 00.47.12l4.316-.232 1.94 3.744a.75.75 0 00.338.33l3.839 1.89-.239 4.21c-.006.16.037.32.123.457L35.22 18l-2.378 3.512z"/></symbol><symbol viewBox="0 0 60 60" id="document" xmlns="http://www.w3.org/2000/svg"><g clip-path="url(#bclip0)"><path d="M58.978 52.48l.001-.063V11.545l-6.414-5.133L47.435 0H24.213c-.292.006-1.505.095-1.505 1.195V6.65h15.62l11.356 11.355v35.669h7.836c.354-.015 1.46-.144 1.46-1.194z"/><path d="M24.214 0c-.292.006-1.505.095-1.505 1.195V6.65h1.567V0h-.062zM50.006 11.62h8.897L47.3.02v9.505c.094.733.567 1.987 2.705 2.096z"/><path d="M22.709 6.65h15.62l2.01 2.009V6.003H22.71v.646z"/><path d="M51.884 17.547h-.086L40.34 6.003l-.537 2.177 9.883 9.825v35.669h2.199V17.643h.01l-.01-.01v-.085zM14.074 7.026V27.79l1.551-.22V6.003h-.058c-.276.005-1.373.086-1.493 1.023z"/><path d="M36.296 43.138c0-9.312-7.55-16.86-16.862-16.86-1.86 0-3.65.301-5.324.858l.001.655 1.698-.24c.077-.01.154-.02.228-.028l.044-.005.137-.015.2-.02.094-.008.12-.01.311-.021c.034-.002.068-.005.104-.006.043-.003.088-.004.132-.006l.206-.008.08-.003c.13-.003.262-.005.39-.005h.034c.139 0 .278.002.42.005l.08.003.055.003a14.27 14.27 0 01.388.018l.09.005.217.015.12.01.091.009a19.645 19.645 0 01.34.035l.038.004a12.887 12.887 0 01.361.046l.054.008a15.56 15.56 0 011.202.22 13.158 13.158 0 01.609.149 12.59 12.59 0 01.39.109l.03.009c.047.013.095.027.141.042l.214.067.05.017.118.038c.065.021.129.044.196.067l.183.065c.058.02.116.043.174.065l.099.037.098.037.224.091.063.026c.026.01.053.02.086.035.078.032.157.067.242.105l.117.051c.12.054.237.109.354.165l.035.017c.11.053.217.107.322.16l.12.064.228.121.155.087a13.776 13.776 0 01.291.166l.08.047.158.095.098.062.047.03.188.118a15.163 15.163 0 01.326.216l.127.089.015.01.182.129a13.292 13.292 0 01.452.338 18.003 18.003 0 01.608.495l.166.145.13.116.154.14.131.122.176.17.109.107c.056.055.112.113.173.175l.098.1.177.189.103.144.075.05a15.87 15.87 0 012.483 3.712l.027.081.038.056.12.263.007.017a15.659 15.659 0 011.357 6.289l.002.13c0 .154-.003.317-.009.514l-.005.13c-.005.14-.013.28-.022.417l-.006.1c-.013.172-.028.341-.045.504l-.01.09c-.016.14-.033.279-.053.422l-.017.12c-.048.327-.107.659-.175.984l-.025.111c-.03.136-.061.271-.096.41l-.02.083c-.042.166-.086.328-.13.48l-.019.065c-.04.14-.083.278-.13.422l-.031.096c-.104.314-.219.628-.34.93l-.035.086c-.056.135-.113.27-.169.396l-.03.07c-.07.157-.142.312-.212.454l-.013.026c-.069.142-.14.283-.214.422l-.038.073c-.158.295-.326.588-.502.873l-.03.047c-.082.133-.166.264-.253.395l-.023.034c-.187.28-.387.56-.598.836l-.028.036c-.209.271-.428.539-.653.794l-.013.015a16.66 16.66 0 01-.357.392c-.233.248-.48.493-.727.724l-.024.022a15.958 15.958 0 01-2.07 1.628l-.02.013c-.438.288-.895.558-1.36.802l-4.659 2.439h2.202c7.733-1.534 13.564-8.355 13.564-16.539z"/><path d="M33.677 43.865c-.005.14-.013.28-.022.418l-.006.1c-.013.172-.028.341-.045.504l-.01.09a16.307 16.307 0 01-.246 1.526l-.024.111c-.03.136-.061.271-.096.41l-.02.083a16.27 16.27 0 01-.13.48l-.019.065c-.04.14-.083.278-.13.422l-.03.096c-.105.314-.22.628-.341.93l-.035.086a16.13 16.13 0 01-.169.396l-.03.07c-.07.157-.142.312-.212.454l-.013.026c-.069.142-.14.283-.214.422l-.038.073c-.158.295-.326.588-.502.873l-.03.047c-.082.133-.166.265-.253.395l-.023.035c-.186.28-.387.559-.598.835l-.027.036a16.06 16.06 0 01-.654.794l-.013.015a16.66 16.66 0 01-.357.392c-.233.248-.48.493-.727.724l-.024.022a15.944 15.944 0 01-2.07 1.628l-.02.013c-.438.288-.895.558-1.36.802l-4.659 2.439h28.338c.346-.013 1.445-.138 1.464-1.168V17.547l-6.089-5.487-5.456-6.057h-23.22c-.286.005-1.455.092-1.502 1.13l.047 20.658 1.697-.24c.077-.01.154-.02.228-.028l.044-.005.138-.015.2-.02.094-.008.119-.01.311-.021c.034-.002.068-.005.104-.006l.132-.006.206-.008.08-.003c.13-.003.262-.005.391-.005h.033c.139 0 .278.002.42.005l.08.003.055.003a14.302 14.302 0 01.388.018l.09.005.217.015.12.01.091.009a19.645 19.645 0 01.34.035l.039.004a12.887 12.887 0 01.36.046l.055.008a15.901 15.901 0 011.81.368l.177.049.212.06.031.01c.047.013.095.027.142.042l.214.067.05.017.117.038c.065.021.129.044.196.067l.183.065c.059.02.117.043.175.065l.098.037.098.037.224.091.063.026c.026.01.053.02.086.035.078.032.157.067.242.105l.118.051c.119.054.236.109.353.165l.035.017c.11.053.217.107.322.16l.12.064.228.121.156.087a14.402 14.402 0 01.29.166l.08.047.158.095.099.062.046.03.188.118a18.377 18.377 0 01.326.216l.127.089.015.01c.062.044.122.085.182.129a13.292 13.292 0 01.452.338 18.003 18.003 0 01.608.495 17 17 0 01.166.145l.13.116.154.14.132.122.175.17.11.107.172.175.098.1.177.189.103.144.075.05a15.87 15.87 0 012.483 3.712l.027.081.038.056.12.263.007.017a15.659 15.659 0 011.357 6.289l.002.13c0 .154-.002.317-.009.514l-.005.13z"/><path d="M17.882 60c9.313 0 16.862-7.55 16.862-16.862 0-9.312-7.55-16.861-16.862-16.861-9.312 0-16.861 7.549-16.861 16.861C1.02 52.451 8.57 60 17.882 60z"/><path d="M2.918 43.138c0-8.993 7.042-16.342 15.913-16.834-.314-.017-.63-.027-.949-.027-9.312 0-16.861 7.55-16.861 16.861C1.02 52.451 8.57 60 17.882 60c.319 0 .635-.01.949-.027-8.871-.492-15.913-7.84-15.913-16.835z"/><path d="M29.036 54.31c-.936-2.357-2.998-3.171-3.283-3.274L20.425 48.9l-2.505 2.6-2.607-2.539-5.291 2.072-.012.005c-.234.083-2.31.88-3.265 3.24l-.45 1.123.908.75A16.792 16.792 0 0017.884 60c3.888 0 7.681-1.366 10.68-3.847l.906-.75-.434-1.093z"/><path d="M8.755 56.152l-.908-.751.45-1.124c.956-2.36 3.032-3.156 3.265-3.24l.012-.004 4.184-1.638-.445-.434-5.291 2.072-.012.005c-.234.083-2.31.88-3.265 3.24l-.45 1.123.908.75a16.792 16.792 0 0011.457 3.83 16.796 16.796 0 01-9.905-3.83zM18.246 29.306h-.627c-4.28 0-7.76 3.27-7.76 7.288v3.42s1.767-.165 1.984-.97h-.001a.914.914 0 00.18-.26c1.003-.03 5.684-.063 8.358-3.096.319.877 1.398 2.537 3.475 3.06a.915.915 0 00.184.283l-.018.013c.218.805 1.985.97 1.985.97v-3.42c0-4.018-3.482-7.288-7.76-7.288zm5.85 9.215l.075-.05h.01l-.121.084.036-.034zm-.038.022l.009-.025.026-.048h.01l-.03.06-.015.013zm-.206.15l-.002-.005.19-.13-.044.041-.14.098-.004-.005zm.158-.043l-.06.116-.01-.004-.003-.002.098-.182.002-.002-.027.074z"/><path d="M11.227 38.476v-1.882c0-3.901 3.282-7.097 7.39-7.28a8.778 8.778 0 00-.371-.008h-.627c-4.28 0-7.76 3.27-7.76 7.288v3.42s.78-.073 1.368-.358v-1.18zM25.073 38.957a1.03 1.03 0 00-.87.136.902.902 0 00-.398.74v2.615a.9.9 0 00.398.739 1.02 1.02 0 00.87.137 2.51 2.51 0 00.547-.235.964.964 0 00.267-.227.974.974 0 00.285-.208c.395-.42.612-.957.612-1.514 0-1.006-.687-1.884-1.71-2.183z"/><path d="M11.689 39.093a1.03 1.03 0 00-.87-.136c-1.023.3-1.711 1.177-1.711 2.183 0 1.006.688 1.884 1.711 2.184a1.032 1.032 0 00.87-.137.9.9 0 00.398-.74v-2.614a.9.9 0 00-.398-.74zM20.614 47.006a1.019 1.019 0 00-.718-.254l-.033.002c-.06.002-.12.008-.177.02a5.62 5.62 0 01-1.142.12h-1.195c-.391 0-.787-.043-1.176-.127a1.023 1.023 0 00-.827.177.899.899 0 00-.369.718v2.678a.89.89 0 00.293.708l1.964 1.796c.182.167.427.26.681.26h.016a1.01 1.01 0 00.688-.28l2.023-1.973a.887.887 0 00.273-.636V47.67c0-.25-.109-.49-.3-.663z"/><path d="M18.113 52.569l-1.963-1.796a.889.889 0 01-.294-.708l.001-.01v-2.669a.89.89 0 01.266-.627 1.025 1.025 0 00-.777.185.899.899 0 00-.369.718v2.678a.89.89 0 00.293.708l1.964 1.796c.182.167.427.26.682.26h.015a1.01 1.01 0 00.688-.28l.009-.01a1 1 0 01-.515-.245z"/><path d="M23.659 38.208a3.433 3.433 0 01-.339-.141c-1.642-.72-2.323-1.655-2.598-2.213a.665.665 0 01-.05-.074c-.196-.339-.501-.124-.501-.124h-.002c-1.533 1.104-3.207 1.75-4.6 2.125-.542.15-1.06.26-1.53.339-.934.16-1.534.181-1.534.181-.51.035-.907.435-.907.916v3.744c0 2.978 2.58 5.401 5.751 5.401h1.195c3.17 0 5.75-2.422 5.75-5.4v-3.894a.922.922 0 00-.635-.86z"/><path d="M12.771 42.961v-3.744c0-.481.396-.88.907-.916 0 0 .6-.02 1.533-.181.47-.08.989-.188 1.531-.339 1.232-.332 2.686-.877 4.067-1.764a2.8 2.8 0 01-.087-.163.651.651 0 01-.05-.074c-.196-.339-.501-.124-.501-.124h-.002c-1.533 1.104-3.207 1.75-4.6 2.125-.542.15-1.06.26-1.53.339-.934.16-1.534.181-1.534.181-.51.035-.907.435-.907.916v3.744c0 2.978 2.58 5.401 5.751 5.401h1.172c-3.17 0-5.75-2.423-5.75-5.4zM41.829 17.643h8.512L38.808 6.046v9.387c.064.743.508 2.21 3.02 2.21z"/></g><defs><clipPath id="bclip0"><path d="M0 0h60v60H0z"/></clipPath></defs></symbol><symbol viewBox="0 0 31 36" id="payments" xmlns="http://www.w3.org/2000/svg"><path d="M29.454 6.2L18.685.25c-1.021-.565-2.426-.13-2.98.912L9.408 13.107H1.745C.766 13.107 0 13.89 0 14.888V34.22C0 35.219.766 36 1.745 36H26.22c.98 0 1.745-.782 1.745-1.781v-4.518h.724a.68.68 0 00.68-.695v-5.17a.68.68 0 00-.68-.694h-.724v-5.083c0-.825-.596-1.564-1.362-1.737l3.746-7.08c.553-1.087.17-2.434-.894-3.042zm-7.662-2.65l-6.725 12.728h-1.915l7.193-13.51 1.448.782zM16.94 1.813c.213-.391.724-.565 1.107-.348l1.064.609-7.491 14.204H9.279L16.94 1.813zM1.32 14.845c0-.13.17-.348.383-.348H8.64l-.936 1.738H1.703c-.128 0-.256 0-.384.043v-1.433zm25.24 19.374c0 .217-.17.39-.383.39H1.703a.385.385 0 01-.384-.39v-16.16c0-.217.17-.39.384-.39h24.431c.213 0 .383.173.383.39v5.083h-2.596c-1.15 0-2.043.956-2.043 2.085v2.39c0 1.172.936 2.084 2.043 2.084h2.639v4.518zm1.404-9.687v3.78h-4.043a.68.68 0 01-.681-.696v-2.39a.68.68 0 01.68-.694h4.044zm1.15-15.986l-4.087 7.732H16.6l6.384-12.032 5.789 3.214c.425.174.553.695.34 1.086z"/><path d="M26.517 7.894l-.34-.173c-.852-.478-2-.13-2.47.738l-.425.826c-.213.434-.298.955-.128 1.433.128.478.469.869.894 1.086l.34.174c.256.13.554.217.852.217.681 0 1.277-.391 1.618-.956l.425-.825c.426-.912.085-2.042-.766-2.52zm-.468 1.868l-.426.826c-.128.217-.425.304-.638.174l-.34-.218c-.086-.043-.171-.174-.214-.26-.042-.13-.042-.261.043-.348l.426-.825c.085-.13.255-.26.425-.26.085 0 .128 0 .213.043l.34.173c.17.174.256.435.17.695z"/></symbol><symbol viewBox="0 0 38 36" id="returns" xmlns="http://www.w3.org/2000/svg"><path d="M19.935 30.12a.547.547 0 00.554-.54v-.949a.547.547 0 00-.554-.54.547.547 0 00-.554.54v.949c0 .298.248.54.554.54zm10.751 0a.547.547 0 00.554-.54v-.949a.547.547 0 00-.554-.54.547.547 0 00-.553.54v.949c0 .298.248.54.553.54zm-5.376.506c.678 0 1.313-.276 1.745-.757a.53.53 0 00-.053-.762.564.564 0 00-.781.051 1.215 1.215 0 01-.91.388c-.358 0-.689-.141-.91-.388a.564.564 0 00-.782-.05.53.53 0 00-.052.761 2.334 2.334 0 001.744.757zM7.874 6.548l5.007 4.257c.857.728 2.23.113 2.23-.99v-.84c1.464.095 2.829.46 3.975 1.066a6.97 6.97 0 013.318 3.941c.18.547.703.915 1.297.915.142 0 .284-.012.425-.018.742-.033 1.335-.667 1.296-1.39v-.01a10.365 10.365 0 00-.939-3.744c-1.018-2.184-2.758-3.965-5.32-5.447-1.286-.744-2.692-1.17-4.052-1.581V1.303c0-1.1-1.379-1.713-2.23-.99L7.874 4.57a1.305 1.305 0 000 1.98zm.728-1.164l5.007-4.256c.152-.13.394-.022.394.175v1.816c0 .25.178.469.428.526.107.024.226.055.335.089 1.364.412 2.653.801 3.833 1.483 2.36 1.365 3.955 2.99 4.876 4.965a9.294 9.294 0 01.84 3.356v.008a.248.248 0 01-.24.254l-.361.016H23.7a.255.255 0 01-.244-.166 8.066 8.066 0 00-3.844-4.56c-1.435-.758-3.163-1.179-4.998-1.218-.322-.007-.612.208-.612.54v1.403c0 .194-.242.305-.394.175L8.602 5.734a.23.23 0 010-.35z"/><path d="M1.646 25.301h1.339V33.8c0 1.213 1.012 2.2 2.255 2.2h27.32c1.244 0 2.256-.987 2.256-2.201v-8.498h1.34c1.144 0 1.955-1.165 1.53-2.203l-2.91-7.115a.554.554 0 00-.514-.34h-2.925a.547.547 0 00-.554.54c0 .298.248.54.554.54h2.55l2.77 6.775c.14.342-.125.723-.502.723H18.807a.544.544 0 01-.502-.332l-2.93-7.166H29.12a.547.547 0 00.554-.54.547.547 0 00-.554-.54H3.539a.554.554 0 00-.515.34l-2.91 7.115C-.31 24.137.5 25.3 1.647 25.3zm12.911 5.714a.547.547 0 00.554-.54v-11.48l2.165 5.294a1.64 1.64 0 001.531 1.012h14.9V33.8c0 .618-.515 1.12-1.148 1.12H15.11v-2.283a.547.547 0 00-.554-.54.547.547 0 00-.554.54v2.284H5.241c-.633 0-1.148-.503-1.148-1.121v-8.498h6.214c.67 0 1.283-.405 1.531-1.012l2.165-5.294v11.48c0 .298.248.54.554.54zM1.143 23.498l2.771-6.775h9.826l-2.93 7.166a.541.541 0 01-.503.332H1.646c-.377 0-.642-.382-.503-.723z"/></symbol><symbol viewBox="0 0 37 36" id="snipping" xmlns="http://www.w3.org/2000/svg"><path d="M34.653 15.512h-1.86a1.925 1.925 0 00-.65-1.01 1.781 1.781 0 00-1.1-.398h-1.986V9.02a.556.556 0 00-.064-.273.526.526 0 00-.186-.201L14.796.073a.5.5 0 00-.52 0L.26 8.546a.534.534 0 00-.19.2.566.566 0 00-.07.274v16.944c0 .096.024.19.07.274a.535.535 0 00.191.2l14.017 8.472c.08.048.17.074.262.074a.531.531 0 00.269-.074l7.376-4.454v3.22c0 .306.056.61.169.893.112.284.276.54.484.757.207.216.454.387.725.502.271.116.562.174.855.172h10.235c.293.003.585-.055.857-.17a2.22 2.22 0 00.728-.503 2.34 2.34 0 00.489-.756 2.44 2.44 0 00.173-.895V17.872a2.42 2.42 0 00-.658-1.666 2.207 2.207 0 00-1.59-.694zm-3.591-.313a.74.74 0 01.536.233.814.814 0 01.223.562v.053c0 .21-.08.413-.223.562a.742.742 0 01-.536.232h-3.039a.742.742 0 01-.537-.232.814.814 0 01-.222-.562v-.053c0-.211.08-.413.223-.562a.742.742 0 01.536-.233h3.039zM14.54 1.18l5.824 3.52-12.97 7.84L1.57 9.02l12.97-7.84zm-.497 32.309l-12.997-7.84V9.966l12.997 7.84v15.682zm.497-16.63l-6.1-3.687 12.97-7.84 6.1 3.688-12.97 7.84zm7.645 1.014v11.32l-7.096 4.296V17.807l12.922-7.84v4.137h.016a1.78 1.78 0 00-1.1.398 1.925 1.925 0 00-.649 1.01h-1.86a2.195 2.195 0 00-1.584.696 2.407 2.407 0 00-.65 1.664zm13.67 15.804a1.31 1.31 0 01-.094.476 1.24 1.24 0 01-.262.402 1.177 1.177 0 01-.39.264c-.145.06-.3.09-.456.087H24.418a1.121 1.121 0 01-.455-.088 1.164 1.164 0 01-.386-.265 1.227 1.227 0 01-.258-.401 1.24 1.24 0 01-.088-.475V17.872a1.304 1.304 0 01.086-.48c.06-.154.146-.293.256-.41a1.184 1.184 0 01.845-.376h1.88c.113.388.342.727.654.967.311.24.689.367 1.075.363h3.016c.387.004.764-.123 1.076-.363.312-.24.54-.579.653-.966h1.88c.32.002.626.136.85.373.226.237.352.558.352.892v15.804z"/><path d="M25.02 23.41h.547a.511.511 0 00.37-.16.56.56 0 00.153-.387.56.56 0 00-.154-.387.512.512 0 00-.37-.16h-.02v-1.487h1.442c.033.11.1.206.19.273.09.067.197.1.307.097a.513.513 0 00.371-.16.562.562 0 00.155-.386v-.368a.567.567 0 00-.156-.39.518.518 0 00-.372-.16H25.02a.501.501 0 00-.369.162.551.551 0 00-.15.388v2.578a.566.566 0 00.15.387.52.52 0 00.369.16zm.003 5.005h2.465a.511.511 0 00.37-.16.56.56 0 00.153-.388v-2.58a.56.56 0 00-.153-.387.511.511 0 00-.37-.16h-2.465a.511.511 0 00-.37.16.56.56 0 00-.153.387v2.58a.56.56 0 00.154.387c.098.103.23.16.37.16zm.523-2.58h1.42v1.485h-1.42v-1.486zm.021 6.49h-.02v-1.486h1.413c.003.144.06.28.157.382a.512.512 0 00.736 0 .563.563 0 00.158-.381v-.527a.585.585 0 00-.154-.397.535.535 0 00-.374-.172H25.02a.527.527 0 00-.37.174.576.576 0 00-.15.395v2.578a.548.548 0 00.153.38.502.502 0 00.367.148h.547a.511.511 0 00.37-.16.56.56 0 00.153-.387.561.561 0 00-.153-.387.511.511 0 00-.37-.16z"/><path d="M27.155 22.01l-.466-.488a.521.521 0 00-.37-.16.503.503 0 00-.37.16.548.548 0 00-.152.387.571.571 0 00.153.387l.835.875a.521.521 0 00.37.16.503.503 0 00.37-.16l1.901-1.99a.56.56 0 00.153-.388.56.56 0 00-.153-.387.511.511 0 00-.37-.16.511.511 0 00-.37.16l-1.53 1.604zm1.531 8.504l-1.53 1.603-.467-.488a.522.522 0 00-.37-.16.502.502 0 00-.37.16.55.55 0 00-.152.387.571.571 0 00.153.387l.835.875a.521.521 0 00.37.16.503.503 0 00.37-.16l1.901-1.99a.561.561 0 00.153-.388.561.561 0 00-.153-.387.512.512 0 00-.37-.16.512.512 0 00-.37.16zm5.364-9.45h-3.283a.512.512 0 00-.37.16.561.561 0 00-.153.387c0 .146.055.285.153.387a.51.51 0 00.37.16h3.284a.512.512 0 00.37-.16.561.561 0 00.153-.387.561.561 0 00-.153-.387.512.512 0 00-.37-.16zm0 5.005h-3.283a.512.512 0 00-.37.16.561.561 0 00-.153.387.56.56 0 00.153.387.51.51 0 00.37.16h3.284a.512.512 0 00.37-.16.561.561 0 00.153-.387.561.561 0 00-.153-.387.512.512 0 00-.37-.16zm0 5.004h-3.283a.512.512 0 00-.37.16.561.561 0 00-.153.388c0 .145.055.284.153.387.098.102.231.16.37.16h3.284a.512.512 0 00.37-.16.561.561 0 00.153-.387.561.561 0 00-.153-.387.512.512 0 00-.37-.16z"/></symbol><symbol viewBox="0 0 34 36" id="warranties" xmlns="http://www.w3.org/2000/svg"><path d="M32.758 6.231A68.686 68.686 0 0117.003.09a.743.743 0 00-.706 0A66.806 66.806 0 01.542 6.231a.707.707 0 00-.542.68v7.763c0 7.983 4.003 13.264 7.36 16.288C10.963 34.206 15.14 36 16.65 36c1.51 0 5.688-1.794 9.29-5.038 3.357-3.025 7.36-8.305 7.36-16.288V6.912c0-.32-.223-.6-.542-.68zm-7.803 23.7a23.65 23.65 0 01-5.208 3.566c-1.616.805-2.738 1.097-3.097 1.097-.36 0-1.48-.292-3.096-1.097a23.652 23.652 0 01-5.209-3.566c-3.147-2.834-6.897-7.782-6.897-15.257v-7.22A68.163 68.163 0 0016.65 1.507a70.286 70.286 0 0015.202 5.946v7.221c0 7.476-3.75 12.423-6.897 15.257z"/><path d="M30.245 8.112A71.011 71.011 0 0116.99 2.885a.743.743 0 00-.68 0A70.175 70.175 0 013.055 8.114a.706.706 0 00-.522.676v5.885c0 2.748.536 5.355 1.593 7.75 1.052 2.383 2.62 4.558 4.662 6.464a22.824 22.824 0 004.877 3.474c.31.163 1.904.985 2.852 1.155a.743.743 0 00.263 0c.948-.17 2.543-.992 2.853-1.155 1.73-.91 3.416-2.11 4.876-3.474 2.042-1.906 3.611-4.081 4.663-6.464 1.057-2.395 1.593-5.002 1.593-7.75V8.787a.706.706 0 00-.521-.675zm-.927 6.562c0 5.16-1.955 9.6-5.81 13.2a21.356 21.356 0 01-4.563 3.252c-.736.386-1.73.838-2.295.98-.565-.142-1.559-.593-2.294-.98a21.353 21.353 0 01-4.563-3.252c-3.856-3.6-5.811-8.04-5.811-13.2V9.315a71.675 71.675 0 0012.67-5.013 72.501 72.501 0 0012.666 5.01v5.362z"/><path d="M10.643 25.193l-.017-.018a.739.739 0 00-1.023-.039.689.689 0 00-.031 1.003.74.74 0 001.018.048.69.69 0 00.053-.994zm3.905 3.192a18.815 18.815 0 01-2.495-1.831.739.739 0 00-1.023.055.689.689 0 00.058.993 20.263 20.263 0 002.687 1.972.735.735 0 00.999-.22.691.691 0 00-.226-.97zm8.441-16.053a2.285 2.285 0 00-1.602-.643c-.607 0-1.176.228-1.603.643l-4.6 4.467-1.668-1.62a2.284 2.284 0 00-1.602-.644c-.607 0-1.176.229-1.603.643a2.159 2.159 0 000 3.113l3.271 3.177c.427.415.996.643 1.603.643.606 0 1.175-.228 1.602-.643l6.202-6.024c.427-.414.662-.967.662-1.556 0-.589-.235-1.142-.662-1.556zm-1.024 2.118l-6.202 6.024a.825.825 0 01-.578.23.824.824 0 01-.579-.23l-3.271-3.177a.777.777 0 01-.238-.562c0-.214.085-.413.238-.562a.825.825 0 01.579-.231c.22 0 .425.082.578.23l2.18 2.119a.74.74 0 001.025 0l5.111-4.965a.824.824 0 01.579-.23c.22 0 .425.082.578.23a.777.777 0 01.238.562.777.777 0 01-.238.562z"/></symbol><symbol viewBox="0 0 36 36" id="wholesale" xmlns="http://www.w3.org/2000/svg"><path d="M17.4 15.07h2.4v1.196h-2.4V15.07zm7.2 0H27v1.196h-2.4V15.07zm0 4.784H27v1.196h-2.4v-1.196zm-7.2 0h2.4v1.196h-2.4v-1.196zm0 4.784h2.4v1.196h-2.4v-1.196zm7.2 0H27v1.196h-2.4v-1.196zm-.6 7.774h1.2v1.196H24v-1.196z"/><path d="M34.2 9.329L18 0 1.8 9.329v14.71H3V10.047l15-8.61 15 8.61v24.758h-6c.3-.359.48-.778.54-1.196H30c1.02 0 1.8-.778 1.8-1.794v-2.99c0-1.017-.78-1.794-1.8-1.794V14.472c0-.957-.78-1.794-1.74-1.794H16.14c-.96 0-1.74.837-1.74 1.794V27.03h-1.2V16.864H12v1.196H9.12c-.66 0-1.26.358-1.56.956L3.24 27.09c-.18.239-.24.538-.24.837v3.887c0 1.016.78 1.794 1.8 1.794h1.26c.12.418.3.837.54 1.196H0V36h36v-1.196h-1.8V9.329zM11.94 33.608h9.72c.12.418.3.837.54 1.196H11.4c.24-.359.42-.778.54-1.196zm10.86-.598c0-1.017.78-1.794 1.8-1.794s1.8.777 1.8 1.794c0 1.016-.78 1.794-1.8 1.794s-1.8-.778-1.8-1.794zm0-5.98v-3.588h6v3.588h-6zm0-8.372h6v3.588h-6v-3.588zm-1.2 3.588h-6v-3.588h6v3.588zm7.2-7.774v2.99h-6v-3.588h5.46c.3 0 .54.299.54.598zm-12.66-.598h5.46v3.588h-6v-2.99c0-.3.24-.598.54-.598zm-.54 9.568h6v3.588h-6v-3.588zm-7.02-3.887a.63.63 0 01.54-.3H12v7.775H4.62l3.96-7.475zM4.2 31.814v-3.588H30c.36 0 .6.24.6.598v2.99c0 .358-.24.598-.6.598h-2.46c-.36-1.615-1.92-2.691-3.54-2.332a2.938 2.938 0 00-2.34 2.332h-9.72c-.36-1.615-1.92-2.691-3.54-2.332a2.938 2.938 0 00-2.34 2.332H4.8c-.36 0-.6-.24-.6-.598zm3 1.196c0-1.017.78-1.794 1.8-1.794s1.8.777 1.8 1.794c0 1.016-.78 1.794-1.8 1.794s-1.8-.778-1.8-1.794z"/><path d="M8.4 32.412h1.2v1.196H8.4v-1.196zM21.6 5.74L18 3.589l-3.6 2.153v5.143h7.2V5.74zm-6 .718l1.8-1.076v4.306h-1.8v-3.23zm4.8 3.23h-1.8V5.382l1.8 1.076v3.23z"/></symbol></svg>