<svg width="60" height="60" viewBox="0 0 60 60" fill="none" xmlns="http://www.w3.org/2000/svg">
<g clip-path="url(#clip0)">
<path d="M58.9784 52.4801C58.9784 52.4578 58.9788 52.4378 58.9793 52.4168V11.5447L52.5647 6.41201L47.4345 0H24.2137C23.9222 0.00550779 22.709 0.0946871 22.709 1.19496V6.64954H38.3299L49.6851 18.0047V53.6737H51.047H57.519C57.8734 53.659 58.9784 53.53 58.9784 52.4801Z" fill="#E4F1FB"/>
<path d="M24.2137 0C23.9222 0.00550779 22.709 0.0946871 22.709 1.19496V6.64954H24.2765V0H24.2137Z" fill="#B1D9EE"/>
<path d="M50.0057 11.6208H58.9027L47.3013 0.0192871V9.52468C47.3947 10.2584 47.8685 11.5121 50.0057 11.6208Z" fill="#6598CB"/>
<path d="M22.709 6.64944H38.3299L40.3393 8.65885V6.00269H22.709V6.64944Z" fill="#B1D9EE"/>
<path d="M51.884 17.5475H51.7983L40.3392 6.00269L39.8024 8.17967L49.6851 18.0046V53.6736H51.0469H51.884V17.6429H51.8931L51.884 17.6337V17.5475Z" fill="#B1D9EE"/>
<path d="M14.0736 7.02561V27.7909L15.6253 27.5714V6.00269H15.5666C15.2911 6.00796 14.1938 6.0887 14.0736 7.02561Z" fill="#FBD7B1"/>
<path d="M36.2956 43.1384C36.2956 33.8263 28.7466 26.2771 19.4343 26.2771C17.5736 26.2771 15.7835 26.5792 14.1099 27.136L14.1114 27.7913L15.8088 27.5509C15.8856 27.5408 15.9625 27.5319 16.0365 27.5232L16.0809 27.5181C16.1268 27.5127 16.1724 27.5073 16.2184 27.5026C16.2844 27.4956 16.3507 27.4896 16.4186 27.4835L16.5124 27.4751C16.5523 27.4715 16.592 27.4677 16.6314 27.4647L16.9432 27.4439C16.9771 27.4416 17.0107 27.4392 17.0468 27.4375C17.0905 27.4351 17.1346 27.4337 17.1788 27.4321L17.385 27.4239C17.4114 27.4227 17.4377 27.4215 17.4652 27.4211C17.5948 27.4177 17.7265 27.4162 17.8559 27.4159L17.8891 27.4155C18.0278 27.4155 18.1668 27.4176 18.3097 27.4214C18.3329 27.4219 18.3574 27.423 18.3885 27.4242L18.4437 27.4265C18.537 27.4295 18.6301 27.4328 18.7228 27.4376C18.7567 27.4394 18.7907 27.4417 18.8317 27.4446L18.9212 27.4504C18.993 27.4549 19.0646 27.4592 19.1388 27.4651C19.1784 27.4681 19.2183 27.4721 19.2591 27.4756L19.3502 27.4839C19.4171 27.4899 19.4839 27.4961 19.5489 27.5026C19.5948 27.5076 19.641 27.5128 19.6907 27.5188L19.7285 27.523C19.8056 27.5319 19.8821 27.541 19.9584 27.5512C20.0023 27.5569 20.0459 27.5631 20.0893 27.5693L20.1434 27.5771C20.2168 27.5877 20.2905 27.5982 20.3637 27.6098C20.4244 27.6194 20.485 27.6296 20.5495 27.6406C20.621 27.6528 20.6941 27.6654 20.7704 27.6795C20.8287 27.6901 20.888 27.7016 20.9508 27.7142C21.0219 27.7281 21.0949 27.7429 21.1664 27.7579C21.2266 27.7705 21.2872 27.7839 21.3457 27.7969C21.4187 27.8132 21.49 27.8296 21.5659 27.8479C21.6231 27.8614 21.6817 27.8756 21.7445 27.8915C21.8135 27.9087 21.8842 27.9272 21.9537 27.9456C22.013 27.9614 22.0719 27.9771 22.1311 27.9938C22.2027 28.0137 22.2736 28.0342 22.3432 28.0546L22.3742 28.0637C22.4208 28.0774 22.4686 28.0914 22.5153 28.1058C22.5875 28.128 22.658 28.1506 22.7293 28.1733L22.7796 28.1895C22.8197 28.2024 22.8596 28.2153 22.897 28.2278C22.9617 28.2494 23.0255 28.2717 23.0931 28.2953L23.2762 28.3597C23.3345 28.3808 23.3925 28.403 23.4504 28.4248L23.5489 28.4621C23.5826 28.4747 23.6161 28.4872 23.6469 28.4993C23.7206 28.5283 23.7931 28.558 23.8712 28.5901L23.9339 28.6156C23.9603 28.6263 23.9867 28.6369 24.0198 28.6508C24.0978 28.6835 24.1768 28.7183 24.2619 28.756L24.3795 28.8074C24.4984 28.8611 24.6162 28.916 24.7332 28.9723L24.7681 28.9895C24.8774 29.0424 24.9852 29.0959 25.0899 29.1496L25.2104 29.2132C25.2929 29.2563 25.3677 29.2956 25.4382 29.334L25.5935 29.421C25.6576 29.4566 25.7215 29.4922 25.7817 29.5269C25.8157 29.5466 25.8486 29.5661 25.8841 29.5873L25.9636 29.6344C26.017 29.666 26.0703 29.6978 26.1222 29.7294C26.1543 29.7491 26.1861 29.7692 26.2203 29.7905L26.2673 29.8201C26.3306 29.8599 26.3931 29.899 26.4547 29.9388C26.5008 29.9688 26.5465 29.9991 26.596 30.0321C26.6617 30.0754 26.7222 30.1157 26.7806 30.1555C26.8237 30.1849 26.8658 30.2144 26.9082 30.244L26.9232 30.2544C26.9849 30.2977 27.0444 30.3394 27.1045 30.3829C27.1507 30.4161 27.1978 30.4505 27.2476 30.4873C27.3044 30.5291 27.3624 30.5724 27.421 30.6168C27.4661 30.6508 27.5122 30.6863 27.5567 30.7206C27.6161 30.7667 27.6732 30.8118 27.731 30.8578C27.7748 30.8927 27.8199 30.929 27.866 30.9665C27.9222 31.0123 27.9779 31.0586 28.036 31.1074C28.0793 31.1436 28.1234 31.1809 28.1648 31.2163C28.222 31.2654 28.2778 31.3143 28.3309 31.361L28.4613 31.4768C28.5124 31.5226 28.563 31.5695 28.6145 31.6172L28.7463 31.7395C28.8032 31.7934 28.8586 31.8471 28.922 31.9092L29.0309 32.0159C29.0868 32.0712 29.143 32.129 29.2038 32.1913L29.3018 32.2917C29.3595 32.352 29.4165 32.4131 29.4785 32.48L29.582 32.6236L29.6568 32.6747C30.6575 33.7908 31.4921 35.0385 32.1396 36.3861L32.1672 36.4671L32.2045 36.5235C32.2454 36.6103 32.2855 36.6978 32.3247 36.786L32.3321 36.8025C33.2151 38.7834 33.6718 40.8995 33.6892 43.0916L33.6914 43.2228C33.6914 43.376 33.6884 43.539 33.6821 43.7359L33.6772 43.8655C33.6717 44.0059 33.664 44.1459 33.655 44.2831L33.6487 44.3824C33.636 44.5548 33.621 44.7244 33.6038 44.8872L33.5935 44.9768C33.578 45.1167 33.5607 45.256 33.541 45.3989C33.5357 45.4375 33.5305 45.4761 33.5242 45.5182C33.4764 45.8464 33.4172 46.1776 33.3485 46.5026L33.3241 46.6141C33.2943 46.75 33.2627 46.885 33.2285 47.0233L33.2082 47.1071C33.1661 47.2727 33.1222 47.435 33.0782 47.5878L33.0591 47.6518C33.0185 47.7913 32.9756 47.9301 32.929 48.0744L32.898 48.1702C32.794 48.4844 32.6791 48.7985 32.5578 49.0999L32.5226 49.1863C32.4673 49.3212 32.4105 49.4553 32.3545 49.5823L32.324 49.6517C32.2535 49.8092 32.1815 49.9639 32.1124 50.1061L32.0995 50.132C32.0302 50.2742 31.9582 50.4148 31.8851 50.5538L31.8466 50.6269C31.6894 50.9219 31.521 51.2153 31.3453 51.5002L31.3158 51.5472C31.2332 51.6798 31.1487 51.8114 31.0619 51.9421L31.0394 51.9764C30.8525 52.2564 30.6522 52.536 30.4412 52.812L30.4134 52.848C30.2044 53.1194 29.9846 53.3866 29.76 53.6425L29.7467 53.6573C29.6361 53.7829 29.5223 53.908 29.4084 54.0297C29.4023 54.036 29.3963 54.0423 29.3905 54.0487C29.157 54.2966 28.9101 54.5423 28.663 54.7729L28.6385 54.7955C27.9956 55.3934 27.2995 55.9409 26.5691 56.4231L26.5496 56.436C26.1112 56.7244 25.6535 56.9943 25.1886 57.2376L20.53 59.6769H22.7323C30.4655 58.1428 36.2956 51.3217 36.2956 43.1384Z" fill="#FBD7B1"/>
<path d="M33.6771 43.8655C33.6716 44.0059 33.6641 44.1459 33.655 44.2831L33.6486 44.3824C33.636 44.5548 33.621 44.7244 33.6038 44.8872L33.5935 44.9768C33.578 45.1167 33.5606 45.256 33.541 45.3989C33.5357 45.4375 33.5303 45.4761 33.5242 45.5182C33.4764 45.8464 33.4172 46.1776 33.3484 46.5026L33.3242 46.6141C33.2944 46.75 33.2627 46.885 33.2285 47.0233L33.2083 47.1071C33.1662 47.2727 33.1222 47.435 33.0783 47.5878L33.0592 47.6518C33.0185 47.7914 32.9756 47.9301 32.9291 48.0744L32.8981 48.1702C32.7941 48.4844 32.6792 48.7985 32.5579 49.0999L32.5227 49.1863C32.4674 49.3212 32.4106 49.4553 32.3545 49.5823L32.3241 49.6517C32.2535 49.8092 32.1816 49.9639 32.1124 50.1061L32.0995 50.132C32.0303 50.2742 31.9582 50.4148 31.8852 50.5538L31.8467 50.6269C31.6895 50.9219 31.5211 51.2153 31.3453 51.5002L31.3159 51.5472C31.2333 51.6799 31.1488 51.8115 31.062 51.9421L31.0395 51.9765C30.8526 52.2564 30.6523 52.536 30.4412 52.812L30.4135 52.848C30.2045 53.1194 29.9847 53.3866 29.76 53.6425L29.7468 53.6573C29.6362 53.7829 29.5224 53.908 29.4085 54.0297C29.4024 54.036 29.3964 54.0423 29.3905 54.0487C29.1571 54.2966 28.9102 54.5423 28.663 54.7729L28.6385 54.7955C27.9957 55.3934 27.2996 55.9409 26.5691 56.4231L26.5497 56.436C26.1113 56.7244 25.6536 56.9943 25.1887 57.2376L20.53 59.6769H48.8682C49.2144 59.6636 50.3135 59.5395 50.3317 58.5087V17.5475L44.2432 12.0601L38.7871 6.00281H15.5667C15.2811 6.0082 14.1119 6.09492 14.0647 7.13296L14.1116 27.791L15.809 27.5509C15.8858 27.5408 15.9627 27.5319 16.0367 27.5232L16.0811 27.5181C16.127 27.5127 16.1725 27.5073 16.2186 27.5026C16.2846 27.4956 16.3509 27.4896 16.4188 27.4835L16.5126 27.4751C16.5525 27.4715 16.5922 27.4677 16.6316 27.4647L16.9434 27.4439C16.9773 27.4416 17.0109 27.4392 17.047 27.4375C17.0907 27.4351 17.1348 27.4337 17.1789 27.4321L17.3852 27.4239C17.4116 27.4227 17.4379 27.4216 17.4653 27.4211C17.595 27.4177 17.7267 27.4162 17.856 27.4159L17.8893 27.4155C18.028 27.4155 18.1669 27.4176 18.3099 27.4214C18.3331 27.4219 18.3576 27.423 18.3887 27.4242L18.4439 27.4265C18.5371 27.4295 18.6303 27.4328 18.723 27.4376C18.7569 27.4394 18.7909 27.4417 18.8319 27.4446L18.9214 27.4504C18.9932 27.4549 19.0648 27.4592 19.139 27.4651C19.1786 27.4681 19.2185 27.4721 19.2592 27.4756L19.3504 27.4839C19.4173 27.4899 19.4841 27.4961 19.5491 27.5026C19.595 27.5076 19.6412 27.5128 19.6908 27.5188L19.7287 27.523C19.8058 27.5319 19.8823 27.541 19.9586 27.5512C20.0024 27.5569 20.046 27.5631 20.0895 27.5693L20.1435 27.5771C20.217 27.5877 20.2907 27.5982 20.3639 27.6098C20.4246 27.6194 20.4851 27.6296 20.5497 27.6406C20.6212 27.6528 20.6943 27.6654 20.7706 27.6795C20.8289 27.6901 20.8881 27.7016 20.951 27.7142C21.0221 27.7281 21.0951 27.7429 21.1666 27.7579C21.2268 27.7705 21.2874 27.7839 21.3459 27.7969C21.4189 27.8132 21.4901 27.8296 21.5661 27.8479C21.6233 27.8614 21.6819 27.8756 21.7447 27.8915C21.8137 27.9087 21.8844 27.9272 21.9538 27.9456C22.0131 27.9614 22.0721 27.9771 22.1313 27.9938C22.2029 28.0137 22.2738 28.0342 22.3434 28.0546L22.3744 28.0637C22.421 28.0774 22.4688 28.0914 22.5155 28.1058C22.5877 28.128 22.6581 28.1506 22.7295 28.1733L22.7798 28.1895C22.8199 28.2024 22.8598 28.2153 22.8972 28.2278C22.9619 28.2494 23.0256 28.2717 23.0933 28.2953L23.2764 28.3597C23.3347 28.3808 23.3927 28.403 23.4506 28.4248L23.5491 28.4621C23.5827 28.4747 23.6163 28.4872 23.6471 28.4993C23.7208 28.5283 23.7933 28.558 23.8714 28.5901L23.9341 28.6156C23.9604 28.6264 23.9869 28.6369 24.02 28.6508C24.098 28.6835 24.177 28.7183 24.2621 28.756L24.3797 28.8074C24.4986 28.8611 24.6163 28.916 24.7334 28.9723L24.7683 28.9895C24.8775 29.0424 24.9854 29.0959 25.0901 29.1496L25.2106 29.2132C25.2931 29.2563 25.3679 29.2956 25.4384 29.334L25.5937 29.421C25.6578 29.4566 25.7216 29.4922 25.7819 29.5269C25.8159 29.5466 25.8488 29.5661 25.8843 29.5873L25.9638 29.6344C26.0172 29.666 26.0705 29.6978 26.1224 29.7294C26.1545 29.7491 26.1863 29.7692 26.2205 29.7905L26.2675 29.8201C26.3308 29.8599 26.3932 29.899 26.4549 29.9388C26.5009 29.9688 26.5466 29.9991 26.5962 30.0321C26.6618 30.0754 26.7224 30.1157 26.7808 30.1555C26.8239 30.1849 26.866 30.2144 26.9084 30.244L26.9234 30.2544C26.985 30.2977 27.0446 30.3394 27.1047 30.3829C27.1509 30.4161 27.198 30.4505 27.2478 30.4873C27.3046 30.5291 27.3626 30.5724 27.4212 30.6168C27.4663 30.6508 27.5124 30.6863 27.5569 30.7206C27.6163 30.7667 27.6734 30.8118 27.7312 30.8578C27.775 30.8927 27.8201 30.929 27.8662 30.9665C27.9224 31.0123 27.9781 31.0586 28.0362 31.1074C28.0794 31.1436 28.1236 31.1809 28.165 31.2163C28.2222 31.2654 28.278 31.3143 28.331 31.361L28.4615 31.4768C28.5126 31.5226 28.5632 31.5695 28.6146 31.6172L28.7465 31.7395C28.8034 31.7934 28.8587 31.8471 28.9221 31.9092L29.0311 32.0159C29.087 32.0712 29.1432 32.129 29.204 32.1913L29.3019 32.2917C29.3597 32.352 29.4167 32.4131 29.4787 32.48L29.5821 32.6236L29.657 32.6747C30.6577 33.7908 31.4923 35.0385 32.1397 36.3861L32.1674 36.4671L32.2047 36.5235C32.2456 36.6103 32.2856 36.6978 32.3249 36.786L32.3323 36.8025C33.2153 38.7834 33.672 40.8995 33.6894 43.0916L33.6915 43.2228C33.6915 43.376 33.6886 43.539 33.6823 43.7359L33.6771 43.8655Z" fill="#F3E2C2"/>
<path d="M17.8823 60C27.1947 60 34.7439 52.4508 34.7439 43.1384C34.7439 33.826 27.1947 26.2769 17.8823 26.2769C8.56993 26.2769 1.02075 33.826 1.02075 43.1384C1.02075 52.4508 8.56993 60 17.8823 60Z" fill="#F7971D"/>
<path d="M2.91801 43.1384C2.91801 34.1447 9.95978 26.7961 18.8308 26.304C18.5168 26.2866 18.2005 26.277 17.8822 26.277C8.56983 26.277 1.02087 33.8262 1.02087 43.1383C1.02087 52.4505 8.56983 59.9998 17.8822 59.9998C18.2005 59.9998 18.5168 59.9901 18.8308 59.9727C9.95978 59.4805 2.91801 52.1322 2.91801 43.1384Z" fill="#F37521"/>
<path d="M29.0359 54.3105C28.1 51.9532 26.0375 51.1388 25.7535 51.0363L20.4251 48.8998L17.9199 51.5004L15.3132 48.9613L10.0219 51.0333L10.01 51.0375C9.77643 51.1207 7.70081 51.9175 6.74469 54.2773L6.29492 55.4005L7.20254 56.1514C10.2015 58.6331 13.9949 59.9996 17.8841 59.9996C21.7724 59.9996 25.5652 58.6336 28.5642 56.1527L29.4697 55.4033L29.0359 54.3105Z" fill="#6598CB"/>
<path d="M8.75456 56.1516L7.84695 55.4006L8.29671 54.2774C9.25296 51.9176 11.3286 51.1208 11.562 51.0376L11.574 51.0334L15.7582 49.395L15.3132 48.9614L10.0219 51.0334L10.01 51.0376C9.77643 51.1208 7.70081 51.9176 6.74469 54.2774L6.29492 55.4006L7.20254 56.1516C10.2015 58.6332 13.9949 59.9998 17.8841 59.9998C18.1434 59.9998 18.402 59.9932 18.6603 59.9811C15.0448 59.8123 11.5535 58.4677 8.75456 56.1516Z" fill="#4982AA"/>
<path d="M18.2456 29.3063H17.6189C13.3398 29.3063 9.85889 32.5758 9.85889 36.5945V37.5666V38.4765V40.0138C9.85889 40.0138 11.6255 39.8491 11.843 39.0444L11.8417 39.0435C11.9163 38.9676 11.9787 38.8802 12.0229 38.7833C13.025 38.7549 17.7063 38.7208 20.3798 35.6884C20.6989 36.565 21.7783 38.2247 23.855 38.7474C23.8974 38.8531 23.9611 38.9484 24.0388 39.0313L24.0215 39.0442C24.2387 39.8489 26.0056 40.0135 26.0056 40.0135V38.4701V37.5663V36.5943C26.0057 32.5758 22.5243 29.3063 18.2456 29.3063ZM24.0963 38.5209L24.1708 38.4702H24.1816L24.0597 38.5549L24.0963 38.5209ZM24.0583 38.5426L24.0668 38.5181L24.0928 38.4699H24.1034L24.0725 38.5301L24.0583 38.5426ZM23.8523 38.6923L23.8496 38.6884L24.0407 38.5584L23.9957 38.5994L23.8558 38.6966L23.8523 38.6923ZM24.0104 38.6502L23.9503 38.7664C23.9498 38.7663 23.9498 38.7663 23.9495 38.7662L23.9409 38.7624C23.9396 38.7622 23.938 38.7609 23.9369 38.7603L24.0347 38.578L24.0372 38.5757L24.0104 38.6502Z" fill="#694B4B"/>
<path d="M11.2267 38.4764V37.5664V36.5944C11.2267 32.6925 14.5088 29.4975 18.6163 29.3149C18.4932 29.3097 18.3697 29.3063 18.2456 29.3063H17.6189C13.3398 29.3063 9.85889 32.5758 9.85889 36.5945V37.5666V38.4765V40.0138C9.85889 40.0138 10.6395 39.9408 11.2267 39.6555V38.4764Z" fill="#563B3B"/>
<path d="M25.0735 38.957C24.7767 38.8701 24.4541 38.9207 24.2034 39.0933C23.9533 39.2665 23.8055 39.5409 23.8055 39.833V42.4478C23.8055 42.7394 23.9531 43.014 24.2034 43.1866C24.3733 43.3041 24.5769 43.3653 24.7826 43.3653C24.8799 43.3653 24.978 43.3518 25.073 43.3239C25.2603 43.2691 25.4445 43.19 25.6201 43.0888C25.7232 43.0294 25.8138 42.952 25.8872 42.8616C25.9948 42.8094 26.0917 42.7389 26.1718 42.6537C26.5668 42.2345 26.7843 41.6972 26.7843 41.1403C26.7845 40.134 26.0969 39.2564 25.0735 38.957Z" fill="#FBCB99"/>
<path d="M11.6888 39.0933C11.4383 38.9205 11.1157 38.8701 10.819 38.9566C9.79568 39.2561 9.10791 40.1339 9.10791 41.14C9.10791 42.1464 9.79556 43.0239 10.819 43.3237C10.914 43.3516 11.0121 43.3652 11.1097 43.3652C11.3156 43.3652 11.5186 43.3039 11.6888 43.1866C11.9394 43.0138 12.087 42.7393 12.087 42.4476V39.8325C12.087 39.5409 11.9394 39.2665 11.6888 39.0933Z" fill="#EDBA89"/>
<path d="M20.6141 47.006C20.422 46.8332 20.1643 46.7429 19.8964 46.752L19.863 46.7535C19.8034 46.7556 19.7439 46.7624 19.686 46.7747C19.3083 46.8533 18.9239 46.8934 18.5437 46.8934H17.3493C16.9576 46.8934 16.5621 46.8513 16.1729 46.7675C15.8824 46.7045 15.5781 46.7698 15.3457 46.9438C15.113 47.1181 14.9773 47.3824 14.9773 47.6616V50.3309L14.9766 50.3399C14.9611 50.6045 15.0681 50.8629 15.2702 51.0479L17.2337 52.8438C17.4161 53.0111 17.6607 53.104 17.9154 53.104C17.9205 53.104 17.9259 53.104 17.9311 53.104C18.1911 53.1 18.4386 52.999 18.619 52.8231L20.6416 50.8513C20.8172 50.6804 20.9149 50.4524 20.9149 50.2151V47.6688C20.915 47.4185 20.8064 47.1791 20.6141 47.006Z" fill="#FBCB99"/>
<path d="M18.1134 52.5686L16.15 50.773C15.9477 50.5877 15.8406 50.3299 15.8562 50.0647L15.8572 50.0558V47.3864C15.8572 47.1517 15.9536 46.9286 16.1226 46.7593C15.8476 46.7145 15.5652 46.7804 15.346 46.9441C15.1132 47.1184 14.9775 47.3828 14.9775 47.6619V50.3312L14.9768 50.3402C14.9613 50.6048 15.0683 50.8632 15.2705 51.0483L17.234 52.8442C17.4163 53.0114 17.661 53.1043 17.9156 53.1043C17.9208 53.1043 17.9263 53.1043 17.9313 53.1043C18.1914 53.1004 18.4389 52.9993 18.6192 52.8234L18.6278 52.8148C18.4352 52.7832 18.2552 52.6986 18.1134 52.5686Z" fill="#EDBA89"/>
<path d="M23.6586 38.2077C23.5402 38.1665 23.4289 38.1183 23.32 38.0669C21.6781 37.3476 20.9967 36.4118 20.7223 35.8537C20.7059 35.8325 20.6898 35.8094 20.6728 35.7803C20.4764 35.4415 20.1707 35.6559 20.1707 35.6559L20.1694 35.6551C18.6363 36.7595 16.9616 37.4055 15.5693 37.7814C15.0273 37.9318 14.5081 38.0407 14.0384 38.1196C13.1053 38.2804 12.5053 38.3013 12.5053 38.3013C11.9942 38.3362 11.5981 38.7356 11.5981 39.217V42.9613C11.5981 45.9393 14.178 48.3622 17.349 48.3622H18.5435C21.7142 48.3622 24.2941 45.9396 24.2941 42.9613V39.0678C24.2944 38.6846 24.0406 38.3417 23.6586 38.2077Z" fill="#FBCB99"/>
<path d="M12.771 42.9613V39.217C12.771 38.7357 13.1668 38.3361 13.6777 38.3013C13.6777 38.3013 14.2777 38.2804 15.211 38.1196C15.6808 38.0407 16.1998 37.9317 16.7422 37.7814C17.9741 37.4487 19.4278 36.904 20.8088 36.0171C20.7763 35.9603 20.7475 35.9054 20.7223 35.8537C20.7059 35.8325 20.6897 35.8094 20.6728 35.7803C20.4763 35.4415 20.1707 35.6559 20.1707 35.6559L20.1694 35.6551C18.6363 36.7595 16.9616 37.4055 15.5693 37.7814C15.0273 37.9318 14.5081 38.0407 14.0384 38.1196C13.1053 38.2804 12.5053 38.3013 12.5053 38.3013C11.9942 38.3362 11.5981 38.7356 11.5981 39.217V42.9613C11.5981 45.9393 14.178 48.3622 17.349 48.3622H18.521C15.3507 48.362 12.771 45.9393 12.771 42.9613Z" fill="#EDBA89"/>
<path d="M41.8288 17.6428H50.3413L38.808 6.04602V15.4332C38.872 16.1757 39.3165 17.6428 41.8288 17.6428Z" fill="#F7971D"/>
</g>
<defs>
<clipPath id="clip0">
<rect width="60" height="60" fill="white"/>
</clipPath>
</defs>
</svg>
